<mxfile host="app.diagrams.net" modified="2022-08-10T17:49:37.904Z" agent="5.0 (Windows)" etag="X0Lg309fTn4uB19u1nYi" version="20.2.3" type="github">
  <diagram id="C5RBs43oDa-KdzZeNtuy" name="Page-1">
    <mxGraphModel dx="994" dy="418" grid="1" gridSize="10" guides="1" tooltips="1" connect="1" arrows="1" fold="1" page="1" pageScale="1" pageWidth="827" pageHeight="1169" background="#114B5F" math="0" shadow="0">
      <root>
        <mxCell id="WIyWlLk6GJQsqaUBKTNV-0" />
        <mxCell id="WIyWlLk6GJQsqaUBKTNV-1" parent="WIyWlLk6GJQsqaUBKTNV-0" />
        <mxCell id="WIyWlLk6GJQsqaUBKTNV-3" value="Master" style="rounded=1;whiteSpace=wrap;html=1;fontSize=12;glass=0;strokeWidth=1;shadow=0;fillColor=#F45B69;strokeColor=#028090;fontColor=#E4FDE1;" parent="WIyWlLk6GJQsqaUBKTNV-1" vertex="1">
          <mxGeometry x="560" y="420" width="120" height="40" as="geometry" />
        </mxCell>
        <mxCell id="MYMWlmHiIjx3NWr-KX0B-2" value="" style="edgeStyle=orthogonalEdgeStyle;rounded=0;orthogonalLoop=1;jettySize=auto;html=1;entryX=0;entryY=0.5;entryDx=0;entryDy=0;exitX=0;exitY=0.5;exitDx=0;exitDy=0;labelBackgroundColor=#114B5F;strokeColor=#028090;fontColor=#E4FDE1;" edge="1" parent="WIyWlLk6GJQsqaUBKTNV-1" source="WIyWlLk6GJQsqaUBKTNV-6" target="WIyWlLk6GJQsqaUBKTNV-7">
          <mxGeometry relative="1" as="geometry">
            <mxPoint x="490" y="160" as="targetPoint" />
          </mxGeometry>
        </mxCell>
        <mxCell id="MYMWlmHiIjx3NWr-KX0B-3" value="" style="edgeStyle=orthogonalEdgeStyle;rounded=0;orthogonalLoop=1;jettySize=auto;html=1;labelBackgroundColor=#114B5F;strokeColor=#028090;fontColor=#E4FDE1;" edge="1" parent="WIyWlLk6GJQsqaUBKTNV-1" source="WIyWlLk6GJQsqaUBKTNV-6" target="MYMWlmHiIjx3NWr-KX0B-0">
          <mxGeometry relative="1" as="geometry" />
        </mxCell>
        <mxCell id="WIyWlLk6GJQsqaUBKTNV-6" value="O Condigo Compila ?" style="rhombus;whiteSpace=wrap;html=1;shadow=0;fontFamily=Helvetica;fontSize=12;align=center;strokeWidth=1;spacing=6;spacingTop=-4;fillColor=#F45B69;strokeColor=#028090;fontColor=#E4FDE1;" parent="WIyWlLk6GJQsqaUBKTNV-1" vertex="1">
          <mxGeometry x="570" y="120" width="100" height="80" as="geometry" />
        </mxCell>
        <mxCell id="MYMWlmHiIjx3NWr-KX0B-10" value="" style="edgeStyle=orthogonalEdgeStyle;rounded=0;orthogonalLoop=1;jettySize=auto;html=1;labelBackgroundColor=#114B5F;strokeColor=#028090;fontColor=#E4FDE1;" edge="1" parent="WIyWlLk6GJQsqaUBKTNV-1" source="WIyWlLk6GJQsqaUBKTNV-7" target="WIyWlLk6GJQsqaUBKTNV-6">
          <mxGeometry relative="1" as="geometry" />
        </mxCell>
        <mxCell id="WIyWlLk6GJQsqaUBKTNV-7" value="DEV" style="rounded=1;whiteSpace=wrap;html=1;fontSize=12;glass=0;strokeWidth=1;shadow=0;fillColor=#F45B69;strokeColor=#028090;fontColor=#E4FDE1;" parent="WIyWlLk6GJQsqaUBKTNV-1" vertex="1">
          <mxGeometry x="560" y="49" width="120" height="40" as="geometry" />
        </mxCell>
        <mxCell id="MYMWlmHiIjx3NWr-KX0B-5" value="" style="edgeStyle=orthogonalEdgeStyle;rounded=0;orthogonalLoop=1;jettySize=auto;html=1;labelBackgroundColor=#114B5F;strokeColor=#028090;fontColor=#E4FDE1;" edge="1" parent="WIyWlLk6GJQsqaUBKTNV-1" source="WIyWlLk6GJQsqaUBKTNV-10" target="WIyWlLk6GJQsqaUBKTNV-3">
          <mxGeometry relative="1" as="geometry" />
        </mxCell>
        <mxCell id="MYMWlmHiIjx3NWr-KX0B-9" value="" style="edgeStyle=orthogonalEdgeStyle;rounded=0;orthogonalLoop=1;jettySize=auto;html=1;labelBackgroundColor=#114B5F;strokeColor=#028090;fontColor=#E4FDE1;" edge="1" parent="WIyWlLk6GJQsqaUBKTNV-1" source="WIyWlLk6GJQsqaUBKTNV-10" target="MYMWlmHiIjx3NWr-KX0B-8">
          <mxGeometry relative="1" as="geometry" />
        </mxCell>
        <mxCell id="WIyWlLk6GJQsqaUBKTNV-10" value="Foi inspecionado ?" style="rhombus;whiteSpace=wrap;html=1;shadow=0;fontFamily=Helvetica;fontSize=12;align=center;strokeWidth=1;spacing=6;spacingTop=-4;fillColor=#F45B69;strokeColor=#028090;fontColor=#E4FDE1;" parent="WIyWlLk6GJQsqaUBKTNV-1" vertex="1">
          <mxGeometry x="570" y="320" width="100" height="80" as="geometry" />
        </mxCell>
        <mxCell id="HxgBY0pkHonyrxbyf2Dl-0" value="&lt;div align=&quot;left&quot;&gt;&lt;br&gt;&lt;/div&gt;&lt;div align=&quot;left&quot;&gt;?DICAS!&lt;/div&gt;&lt;div align=&quot;left&quot;&gt;&lt;br&gt;&lt;/div&gt;&lt;div align=&quot;left&quot;&gt;-01) Criar nossa branch de desenvolvimento &lt;br&gt;&amp;nbsp;#&lt;b&gt; git checkout -b DEV&lt;/b&gt;&lt;br&gt;&amp;nbsp;&lt;br&gt;-02) Adiciona os codigos templates do projeto.&lt;br&gt;&amp;nbsp;- Default template mobile / React NAtive&lt;br&gt;&amp;nbsp;- Default template backend/ Java/SpringBoot&lt;br&gt;&lt;br&gt;-03) Subir os códigos fontes &lt;br&gt;&amp;nbsp;-&amp;nbsp;&amp;nbsp;&amp;nbsp;&amp;nbsp;&amp;nbsp;&amp;nbsp;&amp;nbsp; #&lt;b&gt; git add .&lt;/b&gt;&amp;nbsp;&amp;nbsp;&amp;nbsp;&amp;nbsp;&amp;nbsp;&amp;nbsp;&amp;nbsp;&amp;nbsp;&amp;nbsp;&amp;nbsp;&amp;nbsp; (tudo ou parcial se definir o arquivo).&lt;br&gt;&amp;nbsp;- EX: #&lt;b&gt; git commit -m &quot;&lt;i&gt;Firts mobile template&lt;/i&gt;&quot;&lt;/b&gt;&lt;br&gt;&amp;nbsp;-&amp;nbsp;&amp;nbsp;&amp;nbsp;&amp;nbsp;&amp;nbsp; &amp;nbsp; #&lt;b&gt; git push&lt;/b&gt;&lt;/div&gt;" style="text;html=1;resizable=0;autosize=1;align=left;verticalAlign=middle;points=[];fillColor=none;strokeColor=none;rounded=0;fontColor=#E4FDE1;" parent="WIyWlLk6GJQsqaUBKTNV-1" vertex="1">
          <mxGeometry x="130" y="160" width="350" height="220" as="geometry" />
        </mxCell>
        <mxCell id="MYMWlmHiIjx3NWr-KX0B-4" value="" style="edgeStyle=orthogonalEdgeStyle;rounded=0;orthogonalLoop=1;jettySize=auto;html=1;labelBackgroundColor=#114B5F;strokeColor=#028090;fontColor=#E4FDE1;" edge="1" parent="WIyWlLk6GJQsqaUBKTNV-1" source="MYMWlmHiIjx3NWr-KX0B-0" target="WIyWlLk6GJQsqaUBKTNV-10">
          <mxGeometry relative="1" as="geometry" />
        </mxCell>
        <mxCell id="MYMWlmHiIjx3NWr-KX0B-7" value="" style="edgeStyle=orthogonalEdgeStyle;rounded=0;orthogonalLoop=1;jettySize=auto;html=1;labelBackgroundColor=#114B5F;strokeColor=#028090;fontColor=#E4FDE1;" edge="1" parent="WIyWlLk6GJQsqaUBKTNV-1" source="MYMWlmHiIjx3NWr-KX0B-0" target="MYMWlmHiIjx3NWr-KX0B-6">
          <mxGeometry relative="1" as="geometry" />
        </mxCell>
        <mxCell id="MYMWlmHiIjx3NWr-KX0B-0" value="Tem test unitário ?" style="rhombus;whiteSpace=wrap;html=1;shadow=0;fontFamily=Helvetica;fontSize=12;align=center;strokeWidth=1;spacing=6;spacingTop=-4;fillColor=#F45B69;strokeColor=#028090;fontColor=#E4FDE1;" vertex="1" parent="WIyWlLk6GJQsqaUBKTNV-1">
          <mxGeometry x="570" y="220" width="100" height="80" as="geometry" />
        </mxCell>
        <mxCell id="MYMWlmHiIjx3NWr-KX0B-6" value="" style="shape=waypoint;sketch=0;size=6;pointerEvents=1;points=[];fillColor=#F45B69;resizable=0;rotatable=0;perimeter=centerPerimeter;snapToPoint=1;shadow=0;strokeWidth=1;spacing=6;spacingTop=-4;strokeColor=#028090;fontColor=#E4FDE1;" vertex="1" parent="WIyWlLk6GJQsqaUBKTNV-1">
          <mxGeometry x="520" y="140" width="40" height="40" as="geometry" />
        </mxCell>
        <mxCell id="MYMWlmHiIjx3NWr-KX0B-8" value="" style="shape=waypoint;sketch=0;size=6;pointerEvents=1;points=[];fillColor=#F45B69;resizable=0;rotatable=0;perimeter=centerPerimeter;snapToPoint=1;shadow=0;strokeWidth=1;spacing=6;spacingTop=-4;strokeColor=#028090;fontColor=#E4FDE1;" vertex="1" parent="WIyWlLk6GJQsqaUBKTNV-1">
          <mxGeometry x="520" y="240" width="40" height="40" as="geometry" />
        </mxCell>
        <mxCell id="MYMWlmHiIjx3NWr-KX0B-11" value="" style="shape=image;imageAspect=0;aspect=fixed;verticalLabelPosition=bottom;verticalAlign=top;image=data:image/png,iVBORw0KGgoAAAANSUhEUgAAASIAAACuCAMAAAClZfCTAAAA2FBMVEX////xTzI8LADxUTQ+LgXp5+IxHgAqFADxSiokCADNxLs4JwAuGQDh39s6KgAvGwDd29QzIQA2JADxRiT88O4pEwDNycHwPhgsFwD9+vn1p5zxSivyXUPxQx/U0Mj0fGm8uK+ln5T84Nv0fWqHfmn1jX308/D/9/XycVv0bVWXkH5BMQBfUzX0n5IbAACzrqJPQR5WSirwkoIiAwBxZ0/5x7+dlIZLPRb0uK/zm4yDeGJ5bllQQinvraJmWT3wyMB7cGHwNgD11tD1hnXwYknCvrK1qJloXkj8O6lfAAAQtElEQVR4nO1dC1vayhaFJAY0mJBEXkVSsBQV7BFaxKq3nnvaQ/v//9HNTGb27JkJAhqB736zqDwkgWS59nNm0lLJwMDAwMDAwMDAwMDAwMDAwMDAwMDAwMDAwMDAwMDAwMDAwMDAwMDAwMAgxcX3hy93Z/s+ik5zMBwOx/2jfR+IjtGnbq8b986/7/cw+tNaEIah244eD42ks/O4TNDtfdjnYYwbnpXBd73TfR6JhrPzKiHITm/75Oi2Qdhx6M3yJqP9HYkGwhChh6L3ZV+HcRn5hCCOYLGvA9GRMZTJKEVrXxz1G5Qgx6H3ln/f2dOBaOBWBizti6NhmFlZZm2W9e1QPDZliPNjU4725I9uPE5PJqNGcy+HoYFbWUYOe2jthaOZB2ZGSaocBkXCyhhH5f1xxFVkrVbRYpjhsb6zo4JoL7x1Ftv2EdeeIkoOkRG1tWOdh/+QxDLFt5OdHdWPVhkHM4C9D44GQaYeK7M1K9ASo87Ez1RW2R1FpS89EJAtxESe7N7WThtZ2pjljk4017doZ/raKUUpR8IJZY/8xe45mrsicXSs40TbYNlmNrhTijhHNgS11HfvKa4dTZg3IneNsb7BmHHoNHZCEfQ9UluzsRcCu9s9R6ezmucTfvwwyGGIpAWUwd2o6Mz+zJ9SjoQzslmCtA+OOrfPkVtzw/tH3cpSBl1uhbtQURrtW5gjZGY4vO0hPxrVm8lpfnW2cLkZ7kBFNB/qfeUvuY6Ehvbns1djZPksrdwBRSxjRDpq2Ug/UInssabNwTiAVsm7UwSVaw84emiBvxYOyd5TDpmPZgO6AO/ui2jlymp6YWutuBfHXWBGJAEHoqMk8Hn59u4qkuoyoaMPH/6++/6xWmVGhsq2g+Bo4FJHlCXX70wR634QndiSjiguPsVKUbunmlbCqD9r+9BuSzlyxwlGsb03YIjTIHSU4aGXkWdzY3xzj210VK83m/X60eiFTmu6jYqEbj5aLuZWjY+M8OZ/GNSCWq0WkIfgr9u3HJ4KwZDNjUnl6GO3LOMNOWSnuXiaTULXdQM3DL3pn/GyqYEyMT52VfxFxdH/y43AC4kaDqNWJEXMD8nVhsLRWSwX/tk2r+EoGd4HbuT5/FR8L3Jd8pdnf316qx1TJv4bameevdGvQbM26yRxIb0PRaiTj5MgWzaAX10bkcjj2tYcJc+hi4LQSg2ElImZp70hKOLdbKGkrGfCnHeBFCmjQZyBqmJp32O5CsmexttxNBoGETgP2pGGP77jwDk7nKKO0JpOkdjWwSSBnoqjSLIyRIJ68nc9zI+o17aJa/WZK4TjWNJzh4mAvaQUHeGBWN3QHN5sk0yOb1oYRXjMVWqj5VGEwz7PkrbwR/VJBGbggF2ArXDKHDC0pMFlJjZnFAU5+4AW6X1RFHENgSrAzVQ/yVt+iHM0tBVHtDeWCwf9sDOOCBP9hr4tdtdonBbx5BSqoowhG8p47I0Ud/2hVUZjRjb6tylHzyEzJAfMAkwEkUWe+55LmDi5d10PHFb2hFH0Fw18riXRE2XRsEYeCsqLxJir4Ac6RD1lVtHXHtYOZFAb50e3DeRb0zsvrKVZUc31uD+iFPhBO3Qj636aDXQk4/tAjmoZRUfNJGk2k34oPJhjuYOkSX6bkLwqaRaRXWcMSfzw1iJ9eaFyxMYebUlFG3KE+jqUitp0vEzqSXNxkybJDrcS78+ymZzijLtzcsOFRO+O8Zl3IjDRd2nMck+N/JBka91zhaPPPbG9bSM9bcLRbQWCO6FisgQWklkozC/U//b1BjZCmSIXR8fCKUIzG0T71bbLwu663R/yLszWBEvgm9ZzRLJAGJn3ptKJPofga6OZtmc2TsZTRImiUQRx8R36RcrMBjhzKT/8J9PRT77TVzR2JDS3SZ591Mau2ZW1MpqInkZjqe562sBhT1ZRCPsVryJU2yNvhDuwVBwZRV8g08Y+G3XY1tvasgLBJ2VInWpGRqVZguTdqLue1kT67CgqCiHSF64iXNuLB2Fw7Dmj6EML+kdf+fgaInKT2L9whdNwtGlUR4EI+MfqjM9MRdzSVF+E8sZCVSSqDmBDsjYOTlEcY47KErHw+CJHTxB7yGQ87e0pnyLjWIGaz5zWwEId1ReF2JMXSZFWlyGXBCdvIxXFZZUjOcNez9GNJ6Z3RE/a2/MITjR8VN47raxWUcg9kVPsUCPU9nZZO1tbeikoQr3ar63yuV2NFY7X2NrMg4Ta0UgolR5DqMO8P8p7REUiFc9TUeG9a4UhWzlVnBohigRHnbuzs7OLD3aMtrfXccRVRP5FOkXzCJJKb6q8l6mI1/EaRQ5UL4VRhKxMSgOl/JrdYYrUnn/nlxASfNTKuJY1x1gK/Zz3NleKr1HU5hlnrqGJnmNRhsarDtVOdNciUWTrHJW+xvLOlNQfOd9ZAplk59pW36URjWWBGoFERaIHkGtoxeZFn6o4jOkuSfRnbVlF6ctY4ei8K3bkWVLrLvdrFy73GSm0PzedIsTza9WZs+ya7Zwf9Cm5BVH0syVFeJxTg8mJpEdSke5r7np8WxH9u+e5gz4nFe5xaf0hb5PUwJU7el75sopEn6koQ3sQxmFjAdiCLFGqYhXRDdRWJHL44MRaP3O+tjRqC1+U5j6PmKNk4vGUiUhMnTV82ubps64iGCFxijO0X1VcZdmqihT/K/sieA246mJysk+M873Rn4jlRfREg2eYTTVauB6kNqQIU1XIg35Wy+aVsWz3wiiSKjHZSkRJwmiSfFG6dUtZ4PhQFeUsZ3kFRcuGWMlBbK0xHd8uk+XvuRUIHaQIh+qerABhW+m+iFc2RRnalxhOB1uJ5IyE4UhBn8Q0RUWfushTM+/fy/fXpVmEHDYhyQ2Cdjtga6kc3nbUSrSsALF4qa+pqPDU8aIlqwgHMNEA4uxJvii9xUqz1lZaawTdFUtpqU+2EE3YjcCDq4mIqgjKDEfPi4C/ooL+51itVfMTI3pTfVH3o/RZP6FcEx3d1RNGFhXksB1YYQZehtCQt2rxtO1Abq36opAbWYERrXT5MeYOSJrogSt9IE0yNLoCVLKiq668E0mdPuZ+K8WwjT22qify1ItyVrrQvAjElpMX8d0LK0Aur6u5wlFLWBtHNKDwHJkRzyiRFqsfX1p0OG57wtQcRBPTU+TnzhpuIwvNya5hqLu4MrZzFcNp2dKj8txWVGSXpZ7/Fz6ELViKX2QoDWtTH+I7tI8sbnW1We766dM2juxaXsTZdopshnSuq4oLQjFbshw1ohF3VH34eVnqnN39G2uiiz+tW7han/iCHVAPufNdb5y/ejpLHZnmNHcN9KURTWt7vx5CRyAbG4sBlITdNWwRx+fX/5Z7XSyg7I01GkrL1RueJfJBNfYT1SbDVUvwqYr4rJhVzRDCkdavfAuYz1bTPulRyosU59WV6lf2GRswNA25X76PaoEbRl4UhkEtnD69cLEL5q6Z58otQDKT1bPOt+DySp51Zitmx57Ilb5S4yoqWs8QnRlCzyh6HtWXg/FwPp8/jgfL+ovXJ8hUxO1JVxF4o5ye+FuQ6kg+Q/nEbU1FkjVKhV32m5eiPTvVbGYIbRhts4oVq0hNHX0fWavT6G9HwhqkOhKni4IYGkO0tWYIdkmooCOe+mrtmU4ingflrplavWOFu2StjC3d+6Aih6zGAoc9SsaDbb4kF4QjQY/ogeBE8h+pGZKjIs7teoZGE6intjSINLtepSLSP8D5tR/cpMVx//fwz6RRUxu8r8DldVwWerCheBU+vPdwSbe863XtsijhlH/pG+utjMwu4u1p9/do1Nn8uhYw1q37IjaCCbkDKY5raW0ckuK4UsBVajrE1my9EOXPq5Alnl1X7bKqHNEc2IChW76chYb4djSZzG7mT+PF7/4yeXF6emdEFpyJksUdYN/ebED2qdUzhUxTy3LIshAOnxmSGQ/qfJzpbWphmutjGXUalsVbYyT6+J4XRaHrkvnWoXc/m49/N4+Uz0kGw+f7iE0h5fMio2j6PFwwf9/xfDRjEliid5E6IPc6XONpalgmahP27x63LBtLaJOqg6DekM5C7oZQwiI3CLzZ+AR/1uBb6HmSPDJj8sJvvMH9GIp3UNWXZduFXOuI5kdyQIPXct/nqiuMDGYBbFZ1pEgqMjl8SMORzMP33GD2W3wcvYwB7/tjgVgBD1dHNd/Bdohrm3a/CIq4rQlp8ElYXWXG7I9Y8kEQ/zbREPEZOQ0Q1EsUFui1Z1DuDwJlH+52HKCoNGjwd5BPyjbKac+9Cpeo7sd3OfOulXSRPt2MIRjocVRusH/lJNV4djMIsAGJPR2hItqFstAnC0m6ta3Srxc54jqScuaVU9OlDshGVkYw9YRWoK8m5gujcJeeHE++U4pgEYy8JaKoNHZ5peaAoPzQnYzzmk+vw6Vc97Of+EHe6nsPJZWQMW6moRT9YyQhRUt4zj09z2iWfSw3NB2YolIyd93IYtdWoSuTgvvHZaHXpRM6wsHqXN7ol9KrtDeMZRzDio/mwIAuFAGxX7DOz+A4zQvSW0R/ojB7Tl4dy9XF6WA+tVJm0ls0uXkcJIVfcK1zDc1pgZ40qnoGkQ90thVDafI45c4CuxfFD/OUJru+TM6iRg6td9I5qifN5kly+tIqyTegc121FXdd7l7j7/qFk8ztNUQwjCReHDAy2X1TV3JQl2/MQHWEF5kTCtCKtB89UaOxu/WVq4wxtH0iz/Nk8ThADlNVY3fX/NoY0BtBWomvWPZ49rmnhfutGYJVQeH8+eZ+4kVBpZ0WH26UMuZDict42811drYE6Wfbdln0R0gdG/+6u7j4+6vNr6QKY7f2tgwtj7lMXDKNr9MZEd/Rvx2MH+fP91abT1pkRldQYlwwcM8fSo1qL0UV/YpnTVv6oVHoM8/sTXL2HCXj0Md+/DApoj1/G/kiLZMW9xt0P2QsAp45Bv38LU7gMkREbAdKEc0hbUyFkgjB3bYaKpUm4lq6q2LVs8fbGlbOPKxDAc0hpUpMdGtxF3Zrho6+cYK0KcOAP3xpHh2YPazrWiOgul9pMSJdbc9Q6QTKcT/PFdGvdnxef6Q4nOsRawCfrdmYaEZuWrki9Ct8gpCzyhfR633xHLLYQcOCQXJIO4cY+gvb3j6npjipQG/Z9/NG3jsLWFVO7o8P1RVRSOP9uqJexVApaUDRavnufClXWJf1wSwQVa1jeTeHa2cEHTF2JGLa6z119pkVC2SUFqmBdfM4XgxuUyzGwz/TMPCQlTlWo7hOz/ugk1OL8Gj/Cj9E8RThSpX0dELXJQvqXTeEq+xwnbWL6ha+H8R4v+SKXq2hFMmxRIIG1KB3Av1Ku4cHriO56Ng+p0ZgdT5qgqDOiNQVqegL+g4RuO4XA2tXb3GiTzBfFqnJgdY0mzJreYX15N8bl9d8IYSoy7as7VUs2pGYSax0izh8NEJ08Ojweo3z9BYry5DMK6HHTQ2ZG+/V+mHjpl/Aoe8MlzCWncWyNzOUoj6+b9fgMmrSMGwUVO4LHNXZDaDnv30n/4UPrf9+vJkEjUoQhG5IhjTCoN2u+bOnQf2w08VcZHO0CmUow+goWd4OFuMx+U/PFoP+yXuNWuwA12x2Wq9Qhv6vcPk5Jo3Z+LNhaDUu7r5/v7tYv52BgYGBgYGBgYGBgYGBgYGBgYGBgYGBgYGBgYGBgYGBgYGBgYGBgYGBgcEu8T/H6DcCxfuNCgAAAABJRU5ErkJggg==;fillColor=#F45B69;strokeColor=#028090;fontColor=#E4FDE1;" vertex="1" parent="WIyWlLk6GJQsqaUBKTNV-1">
          <mxGeometry x="130" y="53" width="156.66" height="94" as="geometry" />
        </mxCell>
        <mxCell id="MYMWlmHiIjx3NWr-KX0B-12" value="" style="shape=image;imageAspect=0;aspect=fixed;verticalLabelPosition=bottom;verticalAlign=top;image=data:image/png,iVBORw0KGgoAAAANSUhEUgAAALMAAAAuCAIAAADsjr85AAAAAXNSR0IArs4c6QAAAARnQU1BAACxjwv8YQUAAAAJcEhZcwAAFiUAABYlAUlSJPAAAEdWSURBVHhelbwHfBVF+wZ6gJDeewi9iZB+ektP6CDSO4SQENJ77yH03gQBRRFEFMSKBRD4EFCaiCCCECCkt5PT69xn9iSI+n33/u/+3kz2zM7MzrzvM2+ZnV0Wee+DHnofdJQcOUpOftpDp3rTU6fJp5+T786S70E/kLPn/pZeukL+c/mv9PKP5D9XafrLXfLLnZ70zm/kzq896Z915M/Hf6WPn5DHT0ndU/LsKal/Rp7Xk3rQU/LiCXn+jOa8qCeNz0nDE9L4hDTgpJ40PCVNz0lrE2lrJ22dpL2NdD6lhJP2TtLSQKmpnTS3k5Zm0gpqJG2NpKudyEDNpKuJdKBkK2lrIu0vSHcLzZF1MlcbSXcTzZHJSJeKyLqJ8ilRPiMyBZHpSLeSKNpI9xOao5AReTdtTfaCKJqIqo2oZEQt/zspKCnRSDdRmUnZQ1oN0emIXv9/JYOemF4h8gqZdCbyNzLnmygZyauHiSG1npJeYzJqjERLy6CUATUMRoMONzIZ6e1YdPD/oC4wRUZPupmfL9NuOZGDwB0FUaj+Sv+dY06VKqL6P6f0REfUut5UQ9Sa3tTMTTnlLOSh6CLyLqLoJOouhvtaZqhMqsKwjUSvIAYZRs6QiqZaQkmDk26i7yCGTqJTER2uyum5ppXozULtIoZ2om8laqSQHGGYzAgGJ2ih5ycuqYlWy4hWQwzMLZBD2/wHIR83xSWcoLyWUNajloEY0E/D3wg5ZtLhdv8igwECMxr1JpPhH4RMg+lv1NuQyUxMfa2RqIlJS29k5gbAAwSYdMSo6x0pckzEAKhQtLBoCyhhZFowpwYDLW3sTSlImVvQCq+QGYD/i4BCk5ESRaSJ1uhNaa//lW8y4Q93BIOY/pkwDCXTAR0zRTSEyBnCCUjR+1Nlvhc9oUQPE1GbSLeRyE1ExcwhOnvouMEFoiSkg5AuyiMQbQHnnUZTFzGiWTUh7YS00fbxk3YUvVTQnqBXtGPgBsowd0fHKDvRgozJURGjymTqJSOdkXRSmrQg2g1GiszYeucxGqc4eyWFVCjzUYpy528pFQHqmOv+l5Th+l+p+cCJmXcaomHmDTr5Cg5oOYYzaIN2jcnpTVn0n/mur6QGPRgHPuioGFGKigo9x2EEdil8UYqKk9L/OigP/s/EiK2d6FqIzmjshGyetzw7R4ztxCAn3c3E1NL87Awhj4ixk+aQ563PLhDSQEgn0QM9XU+ffFz//ATNMXZDWiZNE9G/oDI2YbJCEzysq/ueFqaCbFcpnyq6GnvR1m7UNXZ2PKLipwJuaWy81dr0AEw0wgSQTpPh+rMnnwEfBqhMNEueNb1geoKuatuI4YG868rDe18RE27XqUf3iLyh6Q80pTN0mhh0ag0yBqMatU6m1HQaiAZA0RsAfUYM/yaKQsigN/3bVZNWrYOOYCRF9FrmBPn/JcUflX+nzoBRYSRKquJkSiWYyYiYURyAOQiMAEBoxVdaMCPjFUImxM4cdB7T7tGf5vP/emi10HIUMTrcuvdA5ssmXyWA4B85ZmKG0abr/JMooOFV9Q+/f3L/cwCCGGUgVetvZ7/aZFDcoFhRN5uU9778ZD0hTUTTAcAaVQ3ffl3V0vypSf0HUEL0XQ9+vSxruU+hQDWBXNH186cn15n0LZC3Ttv450MI+3cC2QAKps7O9scvnt8Df3RqqJPOs99/2NH2hE4voMrY3NDw2f37HxBdB9WshmaV/PbFC9sJAXSgXTr12l/Pn9vx251TAKXB1AwoABxnL3yGmxpIt87UpdZ1PnvxR7emA8gwAPUEwtRRohrrX1z4XwQJYHrqIQSTATOHzktaW63UaFQMwsxl/pHqcUfSpCZHv7+LvrYYSbdBDlUKVuOiGRYAjZlwjsKvHqye2/bSqzMZrEKq0CrVWhXOe8vg6ElpT9FVnVlVAhkaaBXzVfykI2AOptj/52EwwCcAfCnLdAZDl0bbqtN16PWdGg1UCCYfRteu0YL7mJpNBmO7Sa+g0wB3M+llHU8gY6p4DFrkK5XtmBnUn6LIQLNgh9JkRMtUuWo1ch1sP9gDN0QFNGj0OigMo0GPMcIWdBsNaq1GoYYDRKdTK6N7YNSg6TH3YDvajSZ0CZdA7a3tDARJt8mk0GhxVWNOMQq9gZoztUauhZAMQAPDGYYgBkaP//8l2LO/pYwBpinT5l8pPTESlYHcbyVvpp+48IgOgxEhM0bqefQMAPCHw8U4ID0VzQRk/O0w58JoIGUsBh0DhsT8/MvreZUYKPyN/p6Pg6ZMJkXAy5y/pz23xmSCD0ZvZyJavUpnBCkwEp1BrdbJVbo2E1HoTQAKFRVtDGcaavtUCipsZkopUZWew7UgaoNJjpmFXOYmwKlWo1WgH/SOtL4eil1HQYkC8M7BOLQHJOkhS+rcGQEaMJBWx08qb2qwUF6vVMnMINDqupliao2mq5fh6B71MFAJE6b37tSPhDaFWHB7tGWG6j9SkJpQFL+aauHFGHRqo5Zxu2g/kOL8JTLMKWVgT0p9zl8ek7jyy8trfk9c99sjJXWyIFnaN6q36O2YWmYHmCLj1Rb+izWh6hlBQe8B6IGNGi31MRg3w+xj/FXjHz/NpFaDxX/9piNgWK3H0MAl3PqfaU9JMBF1dXDa8BPZjDeuR7UeU6UzQsnTQeG2eh0CFvDHAC0AwwFG0UyNiloNE2asHp3uhO6BS4iKKjXsvQ5o61Z2wNhj9uhNUIpmDf+XN6DRdyPVGxQGjRotU32j79SrutAtppN6kw4aQmbUwn3BfIOWx5SRG/XIVGi1SHEvlV4vN98UpFB2MdCkxgCj0OAO8DeZgw7RPND/nYL/gDj4jl/U0eupSs9pJrJfJTMbGZFcuvY0LufI4qpf51TXTcm5Nivr0++u1aswxFfLMxyjQ8A5k/EyZZCB45UUjdLeGEwqhIIYrpLKGOIzo/LfpNRBafWcdKvl5tgGRLtHMfN/PSB9LWJUgAPwpUM0Ik5DFhWwTtXZ0aJRY7KiVSBAByzAEEAAUPvgvlLVoFI3GgzQLlqNjlofhbIdCgPdNxEZcmRyeIgoSec6ysvkDXIl3EnwCWU0VK8wtcwz3kRnFxOLUr9Y1tb8u0bRynAQ5keulL2Qd8ERgY+CiBQWQyNrrycGaAsFgAhjBCOoRtxL70WVB3SSWXn06kt6/MWYf/H/f6ZogppmegLFo1AoXvVGX2LiZarQkqcKknvw2aTiq9nvv/hVScdPa1PWMmeUmOiPES1z7a+DWhNzzssUvDcXU+upVse5XKmApGGKzEsECM+VRCM3qbqNSplBYc58SbgKQmG6aNJLZqz8vxC1DkTx++83mV5D37bWPbvB2HUd438o/nh0pb7hF1zSqOVGo+zZi7t19b9p0TUYB5P6RcetupYrBjiAdNVC1iSr61DX64m8Q9WspCtWjX82/Gw0dRgw0fUarUr2+NGtF8/vMsLTGXXy509/a23+Q69tIQYlrrY0PWJ0gJpxHZrrnt5qb3+uUkL2MAPaPx/fbmqmwYvZO+nqbL979zqDKrSmgtr46acfAFkzLIDg5qZ6ve4vHWw+zGrjH5w3pz0hIPwuhPZwlmDK4bQhXKZWCJyk8xOjZpiG8rQdhmlMSlsxp9SVAPt+VpCZ6z5Ed5/TCMWg0yvpVVrczHOm2/gJMtftJZa5dXNK2+t1PM0C61B0QcZHTh27fO/6F7fOnbz17Uc3vjx67fT7lz4+9MOHe88f2332g6y3ylfUpuXtq/z6wYU2uggFFQ/Lr1do5R2arqeapt+UdTc6719uun3h+c/nn1673f0H6BZDOPlF9sf9jkd/tv5hIAq1FiGAAWZeQZpAnaS9i8gf654/0v7ZROpayfNuuoIG1dGoJW0gPVFCA/z+4uGhM9u/vHf8018+++inz07e+uzDn0/su3Boz/mDu749vOurg7k707O2JOz/Yu8zXT0wrUT8Ao4YZerutpbWF43Khk7S/Zw87aALpS3MOp1MSTo1dGVN1kla2kizjJ7AYsk7iLyJtLSTVgXp1NIFOF2zqZNZDZUribzd1IoqHaRTzlzVEE0nkf304s5dxZPfNc/vyeqeyDEu6v2BPzKiaSeqVrrQhhN4KJhRlOdmwQAN8P3bFW3Pup7/1vXkZucf19ruXe24f/7FzePXvzp65YvbTb8jIqeuD4MDRoLmf2iEzk8F0bwgms9b6he8vTP504Pxh9Yc+fnkU+1TNfU3UQ3aBtoROpXq6d76jJlm0r97oL0lgFqdQQvtKSfqNqIo3F7t96b09fjooUmh3LVzhmWGDonnRm5c7JEu8cmPGlE03mMVJ3bPcu+4wInrFv8ovwtwmEeI/nESJ7gsDXRaFWCXNM41ObjPgqEO8f4OCX7u6SFOq/1dkgM8VwaMWBT8zcMfcC/qvesMMm1HM+m8Th7W/nzgtdwol5XBTgmB7ikhnOopKScqjtw73UBaukiLlkYEcBd0TYaukfM4w1cLPOL8JOtn+Mb7sSvH2yf6vbb+Dc8M6djCSeK82Ak1M/yLJ/omCcu/2f6EvNAwyIAifdbxzHNqgFeyyCk9yHb1WLtlo7wXB/gtEe/87t0r7Xclq6euOlaUc3Zd9bW9RRd3TNqTGL5tsXtSkPeSsXXkWQtp/fiPsyMWiZe/k7f83eytVw9u/enQ+hsH0k9Wpu3NP1d3pYHIfWb6D86W2KT4uWXzvJIE3rPZ+y6dkBHV8Sunpm9ZEVA5eXBBdOSBpIjd8fbTxsbX5FJfhjouRuhtuVapIPKiw1U+cVynFK7lKn/7jBC71CDrRH/7FUGpx6vVdLrrqcvKLBBSQ4NJbdC3GTpfENlHz74bvILnlSAcmBszqGqSR0EYOOmzKPhM8/UWAhuskxsVeuqKMtiCcqDI6NEO+PsXMsx4Rc8Y86Ek+hYif6BpCF4xgVs936ckxrsiIur4KrdMtnMG26pANHjHTPHx1a9tm+aUF+xZKBhREuk2ZxzKU1RqdXKiLT632yWXb1UU6LROaFEU4FwrYWW+ZlcttCgPBFmWB7kW8xzmDr9HnskZK6Y36sC4nM82Wi0ba5/F7pcVYFvCty0VWJcKrXLYHhn8Aas4Y1NF98hjTEctFIAOLoByzcXDLom8sVum+VQI2TunSN5dYJEX3C+fN2z7HIcsgWDzLO7mmRYp/t5V0U4JwbN3rOqgK6EquJCYWNzSuX3SOKzCwP61HIvSILc83tDl/Avddx+Sdr9V0a5JIbbp/r7FEu8CoW1KsF02xyov2Dkj6Ojj0/Wk7QZ54b6UMyhTOiBb6Jkc4p4WbLV6rHsqe+iCkPMdN58Q2cwDaX0yX2cVjelfxXEtl3jE848/Od9O5B/8dMJrVQAr7TVWTlD/ElH/PJ5XquSdq19RqwMvD7aGxpdgfsuG87vtUkNYhSE26yV9q9mWa3h9S4L7ZAfMPJwup/YB9pM6PJjmsKPUnBr17USR//lmh2V+7lm8iMPLB9VG9S8O7psfZJPNds8UecaLvui89YzIuoxwRRhBA4G9TujLo8fP6Mk0n4GoeQEytGBcJ6PrJlfExRxKG7Nrnld5+GubpwyoinIvCRu1aVb0iZxxu+bbZIa8vnXquO3TbXM4HinChF0FMqozobW1O+994pUvcikXWJYEsPL93bbGWlQJ+lbxrTaIWKX+rNIg53KxVyLnfNdtBdVyGKvu+P1vMSfsi4UWJRybapFVCbdvfrB9dZhLbaRdvtA1T+SWHByQF/uEyOtIh4yoO4l23+3Po3YncvfN96mRBO2Z6l3CG75uol22IGj34jln14zcNB1MkR5LRD9dcoXeCbwrzTfhjsAWw7ikfLrRpSC8b1GI07Zw+01h1llBYxNDm6nVkMfvLxhYGD5wfYxtRiAQ454t9CkNcykTASuDVrLvk6aHRBaSO4W/Za5Xsdgxj+9SJvZcF2WV7D9gIftXUl9H5DPfSrHLCXbaILIuC3HJFwyIE11TP5QR5Y/1Vz1X+g1YE+a5cfzwfXO91sS6JnAvtfxO1+Hh6kLeOnitxnYii3snG1PLopTHKg7oU8G2qeJal7Ct8kJ8kngKDAGuHTxy8/o//gz4pT3XetNjGXdEzTTbPJFjgWDqt/nD977hXCMdsibatzzKPluy+Iv1d6nepTWotsG/3mDw5WH2M3qIHr0/oDfgKEDDQ1SP1A0JbxW7Zkj65wudCoXuZZKx++Z6V8SMyI8dUzRlRM101yLp0NpolxJBv9wg21TOkEWiZqJp02M2q7fcOma7cqxjIduukuu4LqxfpcBmXYTVWimrOMh+Y6hVhdC5SOK0KOAZkcP0yInygaHedwkXsGMVBfddw7esFVqX8lxqwvoWclmFvH4lQssioWOe0HU1X1Q8/y6BXQf+dD/rnzstCLbLDLEpZvvWhrrmhvB3zB+YHe6dJvXIDh2waRorL2TI+on2OVzrPL5TEnv/laNqojAaEIlqNv903D5V4LUhpk8lp08t3yaPy0+f1EEUHURVcXq73eog700xzqWikZsnj6yd7JYvdCzkYrADsyUrT1Y8IJ0rjpT4ZIk8K0ItS4WsgqD+1SLXEsmIeMlzIq8n8oKvNlslj2Nlv+ZYIXDLF7vMDbnY8Rvg+GvnPc8V41xKeNCFdlXhQIZzPPs/CIKoDKDeKTKgMxpI1+tpYdCdYBSrNKRfFdeyKNi+hIPp5LB4bBtphfsMyWJGMaigousmmmkbEjxSpc4FURY5IufC0MHrJtgX82wK2BCcQz6/f654YOEU/7gJP9fd18KYoBo8UYRoPQjoOSgycMncKD3wr9fkaE3QT3oYJPhKGYdrXFJFrJRxVkV8VnaQz4ZJntmh268dTXqn1G55iH2O0KVYaF/Eti3kYPyuyzlfNN+o18MX03+l+sU7U+iYz4FCY5Vx+2CExQJI165I4FMdARkPKx4/ZLm4gQZZKjXpHp83yzOJa1cGRgSwaris0kCLvCAnBhCsQgGrKhT4sMgTDCmd6L5QOCk/rpt5YHrH2DwgTuKUL7GrEFlkB/hve8MnkT97XwZwOSIryjJPzMoN8V4T7VoisquQwL6Mr1zYRZ0vHTzH9Rffc00ROpWJMCNZVbw+qYHLd2XDoimIasfZd5zSONYVQlg0i+zAERunDayJ8SwRgZxzhazZMIKyOXvTbVf6+WyMZZVwUL1vrbhveoDP3KBGomgmiuwTtR7ZfOuiEOsirlue9LXUiQ9IO5zoNtI5MCF43K7ploU8VnaIU7HUfklAPeUAuA9k0FUfuUlzVf+H12pO3xQ/IAPTqW8Fz61K6lTEs83nDEwX/vDHea1BBpkiRupW6xUaGht+cf+Cf8HUoTXT+mdIHAoiLRKDvApD3fL5lpn+YI5tudguSxxcNd9vUfT7Z05RiasRkFHj9U9kmGHxKjjoOhtjTcyuhoI+utblHVnnlSm1yOeEfLBs8PZpdoUS6fZlcEFg0j5su+yYzPMokziX8X3XR1qn+TsncnbePoUwo94kO9nyo9tq9qB10Q5rxHYbI6xqwp0rYuzTBZ6reT6J7MGpUp9lvGEzea1UEp0dpHXYEs6oqon9CoL71EB/+lnXiB1z2MMrxzvliGyLwljFUsuKKIe8UM8k6cSahD9JJ8YFeky6neeEuBVFOlaHcY/FuebwR6WEf1R3DtYU03rqyQKninCnErFtIdehJtytOHToCsGfpJF5Kq/eceU4NLl7ZbhtjZhVQlGeeqgCuFES1aEfT7gkcy0K2TYlfOti3oCNk2HjRO8uGbZhvGtZ+Kh1M451X4s/UemcyumfH8KqFrEqOBa1Eo/S8PHli8AZhB7bLhz2zhZYFoT0L+DapvNDCuf+TiMXFcKZYck8x/wQ5+pw2zIprOSAJFELY09hxNUw4wbIW/9xyyXH5BBqWGFNyvisErbPumibnCCYLe9U3r7vD2nopgSUJkqtQUVDUl36/vLgtXP6ZwgijucE7Vo25XjO8MLIseWxwysinSvDWCtGh+2In7kl7eiNbxHTUpHTpRaips9Y/nZQZFAT9araoKue+EeRgdgGqq9J11FybJNnhmT03tlWOcGcA4t9y2LmvJPDTCw51ObQRLF3gXjI5lj3Gon06IpRZRN23j7ZQTSY0J+3/OSWyEYtVq6fw9bxFiWS4RVTpu1Oii6YsXj9ymVbU3eee+/4j190EqWMdFSfWO9fOAHKE/6jRRm3bwmUEBe+/dQ9q3bWfTGm/E2f4knOqaGeS3hrzx5so3s3ML3QScNvuubhKyNdcsMGbpvuvibKtzRyRIL4YvutF6TlBWk/Kb/imMyBRRiwdYJzdWj4B0njcsbfNtaBj/CRd1/5aFhGhEux2GGNFLPKblVw2akdTaQLMepHv3wFBFvmBrOy/F03RDltGN+viGeXFwIVOGb3LGBoWP6EvJ/2uWVyh2ya0K+c77wt1q5G6pbBn121opuoOohy96WjzskhQBUqSo+m2s/jPKMhJUJWRcyW+fbZAazMANfa8W6lYT4JglbG8GM2qvRKxO5wvDK+2dI/Nci1JqxfCZdF9ajQoVxknRsyeOMEaOLs98qYvSpQ6nS1G/Jq0bVnvVNlv4rrUhZtnyEaWzNjdMH46hsH7pGm7Q+O9V8RELY3cdgcwed3LnYyTxRRx6QxaAx0Ab5H+r0HywyLV5HxclmNPgTCGAwKeAAVH27xyQwdu2825+BCeFgw3qs+roa+RUzcShRL384dUCCBp8ZKHQ2Ha2BuWOXZfegubN7RB98OypBA+/Up5/atCe1fKAmqmfmIdLaRjm6qJGT1xia0327saiWyhbtTfPLCHEukmKOua8L75bGdcwQjE8V/kJZHpOs2afWcz5u4PrGOrhlgTtPVTxrgQTkRlc8i8eub5/KPJzuUhTpm8P3TYi8231QwW68uq+94rWSP2fGGZRnPbU24e57YK573H/XvrUYZbOX28+8PSBR7lIb2zQ1yr45wSxZsOHMAXi28749/PTM0O8w2J8SqkGNbKe1XJWUVsR0rRM7F/EFrx3uWRfkWjndI4g2tioGGp6qlUuS1PtphuX/5++thp9DCkdtfumUI7SulrKxA62zxgITIP+k6h76bKCbuWOySz7UtldiUhlplsgcmiZuISmUwLxLCq0RQrh2UHgFt17+ATXUGAFok7F/EcywV9kkb55Qa7L86/Clpa6PLKnrEdHqjBm7Tii1ZLskC6Ym0ketneGZLXise/5Xp5iPSco80sPOnDV4o+rnljy7EdIzQzUYEsYLCqPk3MjDnQK8iw2RCYMEsUcuVXSoaDen3nj82pCBy+PapjgU8uLhg/bIjxXAYu3XtLUQxZ1fq4MJQr5pwyxz/URsneqUJ119+H1EDKh777Qyk4lURSlFfDoMdPiQt4gnFRHsnaW4lre2kE4zA9H1E2p2XBjqVhsOTgFMGx8K2WOqeJtr6w7sATSd1CTXX2n5vocFIF13jMnYz4ZoeQ2sgWrf5XP7+eJtiqe+mKW65kuEJ0h9ab3WRLmi168pfh8RzbbODXWrDbAo4r9VO8Y7n3SMtsJJAxpdPfxycKEHQEXJkqVUexz4++O0rH5svnav/2WlFsHtZKNxSwJQio0LgsTUafsPAqijvogj7dOGA0tihtTGiD5Y7lAi4R+KcCnhhmxee+uUMhIQW9l4+4ZkTNuadhf3LxAPWTHWcx/2TyBE+ANaRG+c4ZAf3zeXYl4WP2z03dOPi9h6doVPSZX5jK9E5Jwn7FvNsq0T2NVKn2tg+hWL76gjnNREYhUe+yHVZwGctl5to9A6ZYYpo4VYfvnxiWHaUU4F06KZpoUcTX1s7yXnJ2EektYF07v32vWsv7tFlYFif3vVSojPv/gMy6DLGywPWpAcZoB7U4J+OeXYCD42ud1G/Zv8Px+3iofr8EM3Dj4P/FbZxMQSmIMrHpDOk+A23bB6cdu/qMIfMYI8k/rG680pmpesuee67gu2Sy2VljnXcPKFPNt8nJfQ6qWsmncBEM5E9I80YGLT6j6aHbslC3+2zWJVwMwWOa2K81k7xTJFeaLqhwtQHSomuySRrMHXAA4B9VZFupb4TuhmKrZ4oh8VHeBZG2ZSILXK57vmhnks5b1+HRZNDLX388OuB8SGuBULbUgGcWc9s0dBE6UO6wEoXMf/TeddrCcc9TwhfwXvjBNvEkHeufCInGhXRfnT7a9ckns+6WESkrjDS0HwVwn7VPOsyONpClzT+4MrJ/EMJA2ujfdeBYuD5j902fcAq3tbT+9AyoLz57Pt2SRxERjZVYW4l0V5LRY2Yr3qZksgjNsx2LxV5rh3vtmb8gJpY0dr5bUSrNSJg1co0XQhZfzM0Wydx+lWKYFitSnhWOSJQnwKedaXEvkzoWx0N/Zp8qhbeDCIZCNmgV5uI5pHmmet8xNhSx1IxjCBdR8jgR1bPf0b3wWqYDZLUtaALsRA0lTJdCcVMYyLfvw6KDAYcf0NGz4MTmlDcwJf+4OcvnJPYMNJRZzKdaqR9s4Mj9iU8I51QGPuffW8ZHwSnHcjwQECfK/ZKEF7UPmJ2zOnrSIvngnFumewx+2f5f5TQJ19km8Cu+PndinO736/7etP1Y0Ufbz1350eEP2c6riNysy+LRPDCKhXbVUf1z5cMzIrBLbREw3htdMtXA9EgkHlIWpiwsAOXNERz39jgnz55aOXk1/cvYB9d6ZInGZgceuD3Lx6S5jrSOXt/KgLLARURbhVhVjlseBLLDuUjcIA1RLO/k4axaTHuOXzxySSbteGWSSGHr5zEHMLEvSl74JwqsCjkuheJOfsX9slhu2wez6rmBny4ePKpzLE10zyywwZXT4a24H0YZ53PHrVjRv/UAMHGuUeuf4beIjTbefkj21VsWBO4xo7Z4tCqxc30MR7G0j7j7QTYIMt8vlNFpE02d8HxIigJyMJo0ih1sETGb5p/tU7hscq5rOJAoPb1tW/WvPjUtiTUslwEoMCmwDsZVzQZ1lxL9yBCxggxNFDGGy6+Mzg3sn9OiPvmWFgf5yLJoOzISZsS7pAmuDIoqoV8QYCTwahT0r1nBhqp/R0ZkD0Djh5rQvGAv94YxowMuUn1bd01GGDMuT55gXYVwj55IWM2vvmd9s7ma8esloW4lcd4V0Xa5ga7l0iHlY13mR30nGpj+DiYzR0+C8d55nD7ZPv3r5ZYlYdN/CR/YF6UUwJ7QJrEJUk4aEXophP7oH5+6L7lsYI9ctucUe8u7VsuZeXznCpjpx3OxcihmfZ8fnhWRdLSXQVjE2N9FvOGrQ4bkRblO5f90aWTUCEIEefvy7FbHWJbLHQsl7oUShzj2dU/vXuy7crkbfFuqXx0zKsywrlA7JIn8koWwkIxS/jwr9XXZA98FnMGFYdZw96VhPRdHfjh9c8I0WgNyqutvzpnim2rQ7lvL3p94zTnklBWdqDnzvH9ioNHrJ8UuGn2Gx8XehREuMIFyQ8auXM6AmPfdeMHZofvOPd+B9G1Em3NNweBDNtS0Yg9M+0z+QNXiB+SVg11G9sm7Yuzzg22KhD0zeY6FYojti0H7iELsM1ItEDV/jtf2+dKWPn+rNJgm7wQh0X+V0nLgOpJFsV8BNL9CkJYWcGWS/waYDG13VroOOaRepehq57IRZVzPQvDB22ZZl8e6lAc6pQjcVol8FouuUs6X9CZ1utaMjoDsDBQvP4dGSjCgONvyDDrDJOJrsap6JMew3X5Y4sl43w2TXQuFUJzQnk4l4VZrQgalBfrVTbeq3q8VUbAsA0THAtEtnFBucc2wZjJTdTz/6b+xyEr2e75PBtgvzDQfn2MbZ7EOVdqk8bxqYy1y5e6rxa/exVqX3Gp8/rQeK5LjtipOtK6Oty6ItwmRzLj3exWIv9T9dR9qv+Q5BjXVWKXdKlrfphNFt82WzQwI+ydH0/Ax2wm8rzPNr1WNdEmj40ZPHzTFJ+8CO806dCsaO+s0CFbpiDocK2IcMwWDswLd3hz1I3Oeyogwwh9o7va/Yf7wmD7lECnagmrSsBaMebMo4tABmzp7/oXrDg/6vdkcxwz2DaZHNt8nm1BsF1hSL/UcXbp7Oh3U+1Xc71qI6xL2MO2TB20frJbeYR3hrTg+CbohgaieuunU5Yr/FyqQ+3LRXbZvOE5sY+oAW1oIG1OieNsCzn2pVLHkjCHQvGg9DAYGh3EA7gy+9lXHd/oUhTByh3Xv4aLaGj2jqSHpHP8kfR+edy+xZw+pdx+RQK3VNGl1l+oNTHPZ/r8V9VE5FAPQ5NCh+THOGWIRmx8A+CzK42wyhHbxXF/JY1wgHQ6jUGloovi0Bo6OV1Z+4efwYCnBxxmZNAHMyhjpNv1NEat3ABH0nhD/hiz0Ksm6vUd022zA4ZvnWxdyHetjnEsi3p93xLPmpgx26fbpPr3XxXosoRzX9MIVKJd+HGXFXcHJLJhUKESbbdEWVRLhmx+w7d6gt9bC/rn8SwKhI4pgt+plus613bFa/E41zwR9eRzQ2BQ3QsjZh/KhEdyteXW4JTIfqu5wIpdCbgssa3CVA7vFx9Q/enWDtLZQDqS3i+2ix/r/9YsBA7eVeF+W+cMKI4ZWD7RrSRi8N43XLfEOldHDiiNHpomWbozFYEDTLJBo4S9u6p46L2cw927YOCWWFYJXCLh1bbbiLlg7++qn/ZdGYjOjN72BuetRSM3zYCqcEkNcEgZO2zLZPeKSO7OpSHbFiIo65M9jn94+aA1E6DhhxWOf/vaKTgN8CirPntraFE0bIFLbTjUu1OyoObWkQO/fvzhi2/skv2sCtn9cjh2hRK7fOGUd9MbiQ4Mp56TQdFI9MHF8xyLwhHTWdXyHbOD9/zn3UYim/J2MmBkVS3uv0ZsUSpySRV98MtXMIuIKOnkN2Iy66FlgUsgYNmBolFpUT7ZYTZFIlYZ36o2wr5IOjQ5/FfTMxVR05VWuLyMrlAj7uiBRM/xX5BhPvTU58c1k8JInw6frbvumygcvWEKPAmfKumAcqTh8LetqiJYGcEBBxYPXhvjUyjxShJ8130HNhItoHoLkZ+s/2FQlrBffgCr6HVYaFYpzyFfOHrdVESJtoV8OIwOq7nPSVcDaTnZ+L17YqBDEbxxTr9yaEuOczp34TsZ7aT9PqmzS+Hb1Y6HZ25VxGV/sBhztH+l0DqVXfhhTRNpBHrmbl81OFswZusklwL2wDVRMK62eSK7glDXNdH9ynljji6yqpC65IUuOZjVSjq7wD36JMoIjfhd6y/eK/kOmWyLvADX2jC7BP/Tf3yvJirECOfqbzikCUcdWABhuBZJ7QskngXiyus7B6cF2xbSKTu0ekrgljkhb89zLGTbZ4SM3fKmT1mk+yr++7e+gh/TSXRbvn/PZTXHrlRgVSlg5Qb4rJnslikNKp/uEh/gWiywrxDCMXIui+iXHhz9VmI93UVspB6/QfnNs9s+CZHQr5ZVwn5VbPsUv3N/nusmsjd3J8H9t66R9KkW9i8R2a/ibj3/AaJWHZBMYwbyoqP5uby5jShaTN1wOfdc+MB3Gdu5QGhTLbKs5ltX8e2KBIMzwu6pHsNcIgLVa02QNNz4l6I3HywKHLOK6EWGmTT0yR1zYtJBZ3z085khCSKnNM7oTVM9i0RjqmNjjych4upfKrUsEruUhzvn8eEDx31a8Yh0K4iWbq+l1kR16sUF16QQi8KQPrV8Vq0Ak9I+i+2TIxyYLxlQGGaXwfNcJWgm3YggTrdedF4VYFXAY+UHWK2RuK6N8CiUxmxZ1kQ6LrXcsJ3vZ5UhsCsPtSjhWJUEWJcFsco41qnBB38+JqMxTntYwfRBqQL71QGvr53cP9FPciRx7J4FTsURcPFsKoWsAj9WbnC/BP+v1Ndb6N4LeOg6owG6V39d93hAgsC3PAwzeOiOqS4p7E/unYEMEK4DGfYJbJfaSOcqqVUhx6Uq3DmLe+jxRx+3fWuZHOy2ZqJ3+QTHTEH/jLFDN8Y4ZiGSDLVKCRmZF/ve9S/ggbYRZdXJnZ6p1D/z3Te9X7XQvjrKJlc8eu2MgRXRtiV8q3I+XJABzMO/qN1Ahq5DK2cMv6ris72eyRFWuTyLSkynIOvksVcarshIW+bna/olvk5X4muE9mujnTKky/YWyZipaFBT73Lbh/snrpz+u/IJHB0Q/PevWn60XTrGNjvIuULAyvPrW8ZzzhWXndoKTUPDXSgMZlcXTl49oDOYNXMQcwUlNCa6Nw2/mA2xRp1eJdd0n7757fgdidw9ywYVxYyumDSsIMpvzfQxG2b471lIVx2qYsZumvla5eTAtbMKz+1oIR1wd4mhW0/klxW3vegyIptVEGi5Hn5lkG+h2C1unO/KkBHJUrclbIeJryEw6SaqS9rfPJK4TjXh1BsvCRGeXm1bLIZgrmof/a58uvuL93ZdO+GQJrCpEvevDulXHdSnkmefwXn7h8Mq0tFC2mOLZs0+kBNcPje4dI5/yfTA9bPHbXhzZMXU0eum98kO6FsQEPLu3GE1UcLN86/SJ/jdJqNWRbePdl/quD1kBee1tRMcK8Ss9LGWicH/ab2pITA0uuvdD51WhNgU8ywr2LgpqyDAo0Awf+fqx6Rj6tvZ9imh9jlhI3fMtMj3c63kDl830T5d4FoYOTQ7ZvcPRxCTdxPFii0ZPhlSeAbWa8Ot1kdZV0eysni22WJrxJ9FbAu4NTl+MCiu2aFTd6fX08fuNFxqIV3SslmDiiJsy/isymCrDaEWqePqSFMLaXv7xafOhfw+pRxWOUjsXDJh3Oqp7czEhr5BILZkV9ZrcZwxiaI5e3JONV6vJ4oGItvx0/ueC/0GpAsEh5balYc75oeOTo15TmCz5EomMoUn+o+D2QeKXCCCuYZCMp0WKbK1WrVeRzdOGoju4NkP3eK4AdsXzDhR8MaHuW8ez5t7snhc9Rs++ZF+uxfYZgsmHssK2jDHKVXgtNj/yz/OaEgbMbR365tOPf52ZDYmCl/wRRomjWUx1y7h9dPqS2faLx359dRF+W9nX9xo1Xe1mbrAbs+VXEeYp3KubZUAM9ixPMwzK+zAb19CK8IuInD3SJcMPTCHVerHKh8Hx8UqOfD49ZNq+mppy2vLhYMTwme/VzbzYNGc94qnfpAVvj9+QJpUsG2x95rIcfvenPjRCpdUP88CBDXjMZmYiEzfTTTfNl4dEs8dXhHtVRtpUxUGIX356IKWqLqI8lzDTQTSUBh9KgJZVX5WNTzbtIAFO1LB0wdENyAxxiEzzGvdBLdqoU2BX+C++aKjKf77l3tlhO+7+mE73SEgW7k9A6EKfCOXTRNZRXynyqjRW+cMLpngnC2xKRE6bYzC7McEGJQfveDtwgaib6NvV+quqx96LQ9yzYfP7gdksIoCrPO5y97Pn7J+sWeOwKlS3L8K0SybVcxzrpwYUji/kZGuimh/0j92WeAn3T47ZMM09+RQ9yXCpdtzjt08/Zy0JOzPHp4mHb1mqltFrGf5eKdl3A+fXnhBkUF9iX9qjH8jA/8pgphryNLD/aSbpnWHfjz5esm0wL2LvHLDJx1Js00MGn84OXzXstC9y6FOR6ybNuFYuuTtFdJDq8YWTkzYltJFmgz0dVjZpovveq4WwpQi3rPYEEFX9FaOvUuet5K2btIuo4+d5Gq6FK17TjrGpEQ5VIazKnjWeYGDKqRehRJEttGli17Q7XeaZ6SdtWQsi66lBrAqA1glQVDpV7puQwB/kMbYrcv9a+YKdq7ib1oRsGYef9+yoK1zJ76dHFQz0zotMOStOXOPJwdXTeC+tdxxheh8/a9wnpj31zQfv7g4LDvSNZPvXCSyyRe5JPEPXv24i3Q3G2UnH120X81j5Qb1LQnsVxnIKvT3KJbM3535jL71rNp180vrpRzP4ii7jAC7nEBI2qEmmpUrsE0RJh0uQ/QBG7dwQ4JnqggOCiszyL0qyjGVK968aMHBrEnbV8LX7pcTYl0qdCkNc1gRsnh/YQvRdxED0u2XjvquFrkUCWyqBaz81/tU8vvC388Lt80UWpTS3S2svHH268L6VAj7ZAs84kLvkXbmWYzqeN0FyZYlEz9OcSsUDSmdPPlA5qjl0spTGxtJ29nuq2OLxjtmcL0rY90Kwp3jOHtu0WdbCtgvuovsn+akFxkg5gIKmBWLQUffidbRwAS31M2sThJuXeKUI5h0PPO1msleeaEx7yQ5L/OvuvOOe5pg/PEM6+SQ4Wun2mQIRhSNH7OA00XaYcuhq7dcOeqdFmGbK4WJ7VcmxvywWfb6Q9JSTxraSYt5GwSzhCXHSebxWosMHquE55QT5JI87rWqmIGZIs+lnE+brz4nskP3PnfOD7OsktiUhjhWcx03RLrnSW+pHjwzPP2i85JvmmhwyaTgnXGiPYnuWaGTTmX7FoUvPFa4+Gghb/u8gE3TfNPZw4vCh66f4Zgctu08Yl1Dt0EBQ3a647pbIs85lTN6w7QRm2bYx4dsPvduM300ozv5+D/wQIFmp3XifiX+cAuGrZk4qTqume5m0mOKrz6xHkplVHnkuG3TWJmBQccTWLl8+wzRvB0pjfRl+85JJXM9VwvCjqUE7F/kUxoxIEl4izxvIJ1A+arv1jrmcC0yoRvEiGZzPtlMQ31ieEZUBZ/vdE8WuBQLLSu4fSt4TrWRCOL6FISyiiQIMfqtlfhsjbEqDrFbG2aRJ/BKDd9/63O6v5Vo9t74ZGhOFPzZvrkhMBkjSif5LGdfJfeeksYLhpve6QLLtGD45p6FkXZLgnbf/ATDp6oARkL3X5Hxksz/mXOjWktMBg1d/Nc3EQ0vFdpJMLAi0m5V4OCScEDPPjHAKz7oBnlecfttsNWxKNSlOqZvDs8hnTcyQfCb7oGWWWTcdO1Dl1XSMZvmuRVFCd6OC1j3ptPicfdIy5mua+8/+HrztWO7rp/a9cPxL+9daiPdZ+ouO67iWufwfPIFI0ul/hunDKmKtE3nOmaKPVOkbikSz7UTrYsFTlmBg8sldtk89wReK/Nk7ovuS/BefUpifErHu2RJgBgYZvtEv4yTax6RzuDiSR4p3MFV0Q7FEouicLu08OT3NnZR2wyXTVNwcguncubIgmj+nkUD1015fcPsqbUrGuHbE82G84eHFE+wLRdblXNtqrj2ZUKvTPGoheIm+jyP7lhrIKoJVYuity+OP18F82+Ry7Ypkgwvn5R1vAquTx15Pr5w5tCccMdshJ38EWUxg1fwnpP2DtLcQhrjDueMKIri7Jnvms7jVc8t+3QnnC0tMT4las/5PISadgXcvkUhfQpDEAkPXDeNlSOxqIphlQota8SWOf6D1oVTm1vEd08Tz9uV0UbalKT79JOLwzOjnSujLCtDEaUjnoJvsfvx8d9JffwneTap/h41kfZFYtd8qddqSfzBEhhTZpeQkXQjzGAQ0Xu8goyepFeF6OgDbiVRdxAtfOYJ6xIcEtkBO2bx9swfUR076dNMzq65A+KCvjVcv0nqnRICrfOEdrUx9jXRXuXR3nHB/+m+qaZbB5SlPxz0yZvoXTQRk883Ozygcmpw5bQ3DqWNyIpyWcF1iBMMS5/gv3py1oEamJWnphbneUHe+WGuGSEJV2oGVkq9asL9Di8edWCR19qpvhvfcK6KtsgOHrdlatj+xYPyI4QlM5mPNMiONX7pkhLoWxEtOZLkURAWvHuu4PAS/3WT4/Zl3SP1Hzf/YL90nO/6SaxcTr/SSJf8CRPXJLXRDW4aRKflZ3a7JnDhUAftmof2rVI4Q5fw64n8GVHkndoyqDC2T1ZQ36Ig+xqRW1WoWwpv5AJRI8NIOPb1+ua1X+ye/37W8NLIsVumjdwyhXNomU2c37g4URPdid4+bEGwcMei2E+zpB+sGlM1ZdASdj1p0dPnTW3ZH1VMeSdx0ocpkn3LQirfPHz/a1g3tPlN6x3vhFDY6MHbJvt/sNgiPwQhj3dOhGfJpH7pYpvC0EGbJg2qjbDLC7Cp5tnXSOCGD4rjtZMuJZHfUDzwXcpzLAoHgOxqwvrnhzhkBHmkB4+rjA7aNLV/TpBtldihIsylMNR7tWTduUPgOdUZcCD+vdvvvyADHqfZqJjoExOozdukZUCcNGjHfMcCnlMuZ9zOWZ5rovy2zXKaO+oq+e0+aVrwYZ5doaRfRSjdwZAa6LYi4KLqlozIW4lixsF855xI55xw/v547taFE95NHX8kVfpOQtiRFIR8LgVRzinSocnRh25/LqNWVlf61W7oZ++KCIuCYOcq0dBdkx2rpaycIMc1Mb473vRaN8mjNhY/oRI9kgR5xzdAM3WT1vLzm4eVhvpWRlplsrn7l9ikB/jtneGaGpR7rAbu9wXlL4NTJJgr/SHa9VNtU8RT1q9qJkqZtgWdTPxsrWthhHdFlGOJ1Loy1CFXNHgR+wlprSPypBNrbFexqWZeJ4ViH75r+uDi6KFLhI30hQP6yBtKccn6ZNG6ee55YvuMIPa+eSM2Tpt9smDRntQ/SWMdaQ/OmRCwfR4rPdhrzYQhZbEQ4Qt4prpmDZFlf1zplcL2LgmFNcGcWXG4RE7nkqLk7EHEot614/sUBg/dP8MiLxj2esBK0aDlEm7xHKclgYMKwjxLRLZlbLc9sf3XCFwrwxyX+19X/tZCWhDUzNuW6p4X1adQ3LdCiPjfe22kQ0GIQzHHoVLgtX0Cq5htuybSNls0OCkcQV8rUaqMzJcm/rufYaaXl6AwNNAwBiADTkYL0V1QPvZYLnYvDHOuDBMeXelWEdYnh+2QJYBLf508eEyap+5eCWvCyuOw8tgjt7zhvML/eN1XXfSDNN0DU6OdcqMc8yLcCyJd0kXOqQLHbCFiGY+qCRY5Qvv8MJ+SWI94/oFfP4eVhX6+qXrsPjfALoNud2BljXNaI+6TG+BQFWpZKoatdSmNgDfXp1BoVxA6MDH0p+7fEfqriCzrdJVDsp9zgZB/ZMWYHW9aZQbaFoU4pQYmHSh+QtrOKe4MSBBYZnHgvtlXRCD6GJkQ/oJ6QjI4wm6r+VbFErsyqWUx36k22jaLO3Sl4Gfy4CGRDVwpcsjgszL8WQVB7psQcPr7lsX4LBc+Jl0MMtSQxIhZnOEF4x3zhKO2TBm+cSKgOaxsvOf8AEyYG6TebVmIc2F430KhRZ4I8YjjXD/0R08UiKfi3sn2zRPbZAc7lYidsoRzD+Uwn/zpmrg33SJTABNG95gVBToWCzyS+F8pbjHxp+I+afFYHtQTuFYE0z2RWX7umYLV7xW3EFkXkZ+6/71TnKB/lrhfAcexVmJbwrMt49qskbBKglm546yqpZalUq+iaPdZgU9JZyORQfnp6OuhvVFH7/E/kIFyGp0ZGTCl14wNQEbQ3qWWhYK+2WyHsvBxB5eOXv/m8JXCs53X6klb3OE8y2S2dXmYbanErUAyIJm99ccDCD0Q04/JnThs3Uyvqkk2ORLX/LBBFRMD9iwcvHaKZ3m0TSZv+PoZY9fNRLB6QXe/g8aQOhlRH/3lS966edZZHP5HK61Leb4bYtnvLXOpivSojOHuWTasaqpjcaRv6aQ3tqU1040FdK9D0onSwM3TB9eOx7y3yGIP2TJl6K6pI2snztqWVkdUF41/Dk2NcMrm25UKEEFYp7I9lwQ9ou8xNLaTNsRZALRNhQS6waUq3Ksk3DUucP+fp6+T5wMShVbpIRCSS7UUUXT/Arb0aLJjAu879W9dzEbR25rHg5eJRtRMty2WBh5aNHDjxP55dMO648LAr/V3bhHZgKxI1/JYy5Iw66KwMRtnc8rnPCPyblOXnHQvfDfTcrWfx7ooVm4gwhOPRJiwrudE7pIaivJ9itjQUjZlfNdi4ejcmEekC3eEI9JAuqJqFlhlI0DjsirpzlP3TTEehdJBSeI65otSL0jr7F25AzKjvYrDOO8stM4KsisX2KwPG3l0EasgxKkqwqss1idZuuvysRbSjTbV8MQ1qn+pjP+GDLWcbkKk1sRAt/rBmmy/cGJ0yiSnZIFncQR1a9P4cAlHFk0cEx/6wZ3TT0jj9LXLPPIiPNZPCTmSYJ8n8M0WLj2U3kI35nQ6z/cbAd9i60LPnPBx1TPC30rwSBe7JPND96wIXj/HKYnrtprrmyg43fwjkKFFUK6Rt5k6ik9v5dTOxtgGrI0dvmGye6HUPT90WNnEIdmRMJDeyWFeceInzEY3eJGdxq4RizlDcqQ+BeEueRKE0E75Irtc7vCS2NHLI+po9HHLfTnfNUcYcnix85ow6LwhWZIvWi8oSMt97T3ESsCTfSaXv2/JoJJItxSOdwJn0y9HfiPNI5OkntkSm/Qg25TAuMtrUIa7d8ngzKgzijuItztI13XNn65zAv03zh227g3PwvDR66aP3jjTNz92TMaEjzt+OvDsrCdaKIp1KYm1yRAPyov1WSoCMuDXdxPFG9sTBpWG+9RGOZaKvUoiXZYF1xMZpNt3vh+gj0zLTH/nPC4CivgPip8TgAn+qQb33XrxsH260LYqkpXPti8VY7BDS2O9V/KhGuF1aYjqru7FuITYIckSn0y+T56UviNTJIRGR0zumClyjefkfLrpKWmBNdTQZXG6FmJewXr1+O86gwYmBqNererSdXcSnTRx5siFoQOXCBxmjek/bQTCSO9lAt+FvNGz+Lu+e7eONMQWzvPKDu+bJ6R6vjzUtUDomRD8wf3TX7+4MGKVBJ0euIzvPScwrHDmqKXC6IoFw5cJBy6g70sNWSX2Xs72WRB0rv0GbB7UGn3VwgT7Lcs9VBG6YZHDaq5PfqR7pmRs2VR22Uy/tAljV0Su2lP0jHQCFm3qTnT6p7s/D570+sDFIW6LAp2WBNsvCXKAvo0PQuNDpnPriPqbjrvey0QueSLLMj6rMMiqTGSXHuyzIqiOPN7//V6Pua/7JvLc573uOW/skDjemNRw74WB1T/sPdN4eeibgWOSwkalhw5ayX3jrYTobcvR5qDFgo/ufwv/WktUD00NwxYIfeKFnit5MRsWz9mXximeMSoxasgMztnWXzZfPMLOmO61QuKzOswnUTo2a8qYFVFP6No8fSLqv1zqHc92TQxyW80emh42aCHnatPty423BsdJfdLDRxREuMX7jUwRDVoQtPvse3AV5UQpN8IMaQ5fOekeJ4Av4rKK67WS6xvP81oUNHApr/yTbVoiN6lhIHSIuhfWrvJPDB2aKPZKErglC+0T2L7ZEfBXTj79oZF00Pfb6BNaPWG+b/D/qjOYK0joy7hwQmkMA2tCo9avf79yU1n3gnQD1FB3j0j7U9L9iLRcbb57T/4ETtOsyvhRBZNcymKsysPgxI3a9WbUe6vCNi468OSrrXeO77nz8ckH35248cVPbb82EwXaYd7zkd2S3z/fcfN81+1PHn1fR1qVFLi4vZFGuyYaNZyqu7j4cFFo7ZKgnKnzt6amvl1WeWrnlU7YHV0H3dPFbFAzkidPH99ouP2EtECLPCBdD+m+Htk90nhZde/Le5dbifGOtmFUXIRTGs+xMtQJ2jsvJPrzTP62eUmHc842XrhJ/oCr2Ei/Ddh4tuHq+zc//erppWtdv95q/+3gd++/ff79XT+8c/j2yQM/H992/uBbl49u/fadL2+fNdBdqJoHXY+3fn1w+5VjG344dPz25wfOvb/34rFvnl7b+/mRi39c/+q3S8duff1p3Y+Hfv1y17UTu348vunbd58zm/O0RHfxxY2Tz84drTvz1p3je28c3/LV2/ebH1x5dGPxxszFe3K3Xn1n63/2775wsPDtih8fXodZ11HXT9+tlV14cC3jw41bbn3y1s2Tn/557kLLT58//uFC950H+ufoEvPRIqPeSL3jnzru7v7xw6wTGxbvy8/4ZON7T84+IB1gHXRPt7ydeQueWeMiRK7+1z5QigVzmMpc+Qs79B+N+M0rXV1MgAdNJSfqViJTMy+8M24BSHn61+8GxktG1s50XzeZezLZtTrCNk/gVhJtGceWlC241HEHM0xPlIh00A7TmpI+6GO2Y2EAMJ/dyKHIMNItqLS7xi5ZG0o2EmUT86VFjFhN95drGFgYu4lRjqroJN3nZkKEAm+jjT59xoh1DXRlGkYRTNKq6Wdy9IvWpb5WOHFAeVTQ/kUjd8yEw+RZFuGbxB++iJ3/Hg2Y20l7h6FdRR+XqPQMUfYZZHraSVUbde5UzfpWKHPMWvouKfOVPh3R0nx6lW5+MdJPFGrAIo1RS7fswtIZuhW0w8pmuvWVvt8MVYdpB0wria6dWnp5C7MWDMMNbqsMlD8NVCPCaWhDIKqgn5HpkYpGQx9WyI3KVvoZMlU7HSA4AwtCTZuCKOkXi+ieE8pApU5h3jzbSBS4L+xRPeluo/uVwDLmq4Q6nUmhpGoIvemR+l9HLzKACKok6H+VwaBCXI3aOvppOubhAn28xAiBjpbu8qAFoFEgIQ0Uo4yoghLHj9+X7FsxwSqbP6RmgndxpF2qiLdxecDK2AeqZ8wL13q5QS2ny3x08zF94Ey/32KkO+jp1+/0zEv7tBP0GzoMUtVGLXDJPA+EGOiHs1Csy6jqgNNErzO6jbGQJj39EobapFYTvZLpM8Zh0ivQFM7A9KM/ng7OmSzcttghMXh4zWS3kgiEAwNXi8TZ04oO1CjocxnaOO2AQUub6+5k2AWdhM5iyEY18+lMg0GnpV9xBCTAYVoATABPaF1MQSPd/0K3PDBcNdCPAdHqGJNaR9/CpSgxKcyS1urRik5tUOpNSmbsTD0j3aTJjBpQwygpiyAVupuHisnAfCeBvlHGbP5GFiYS7otiGrVRroWZQqYaDRsNOr3GQDcDo4dwM1V0sQSDoU4CnXt0AxjTpjn91/FPZGAQzHop7TeTpdfpVWoT3YNKdyejWfrSAVMCkiUG2BowBWO+2vqrIHOa6/IQm2XjhOtnjU4L5WRMSdpb+kjfDPTQhy96XZtB205M9F2A3juiGRDtA/pqRC598Vappd/toJm9h16nMSEUoF4IHTD40kl/YPZBZrQlKhWTHh1ELSoLtISpo8XMpj/lmm5gd+2Z/b5LuPDh3eJC4N7yq2dHFM/e8e07mHkt6g4VAwGzM6bW0P2zII0R/DbADqNH6A7OcSsKNrRPvQXKKwyHHsgBrxkR0Xlt7j7+kKfW0M6ih8xrtHIYSqXKiKDKPECwEwgxGIwaqoJwAzPJlV30xSIwhK4eMIOi+0cxKINaqQFIASDk0SGDmxqdtqMNbWFiwJaYJUivmvtggofCTG1mVMzqNs3UaKC9aDGd3mj+nserxyvIYIBO2QFY0Aw6Trq70KBVYzgMMlABZbRgDcalNimhPSEQvR6CR2QPH+Kbpqvbr7y/5Yf9J//4upkJ+ukWaq0MrQGwcoaPkCumAxoCu8wDoOv2WooMhNVaIyaRnio39AdDQL75AGa0OqrL6UvitB3UpZEJc0JnNXiEwmgOhCzIA6qduRHmMaZ5K1HdJw0f3Ptqx9Wjmy+/d4vUPadKmxoysKunJ3TQtBlwwJxD22ca+YuQr9KZHbgOjbodKoRhoLyzCwXRNxBq9cAbWXR0jEU36ZU6zDGMlCqjntZwggLMLRRqulnGfDfgkTKfaZliFsQInMqVqYsy9Bb4B+3LmA+01UmtFeMB0d6Z8ygbaRXaJyYX5yigoY4F8jQm5kNPPd1hrjFnLz1Q2oZZfhgYoyGZ7iMfIqEzmbkJyPwfcmVYAFTjdiCGI9TQQH/AIwHBQqPLzJIZOoA69D44M/MOVdACzaczAkAD/80zlhajxc3seCl7ZKEbzFgVzFc/afWezjPl/0Yv+0wvMi1jNmNK0VkLvEKFgGBE4Oj0dO9lUwy3QUxdKhR6/jKLHkyHKRZpRZqN+zBt4GB63dMJpjpTAAcymJaZq72lew8mv2ekPXc055pbYhrtzWVOzNR74BTXe6VAT/7ZFA6c0dbMLfYQesgQLtKu9rKCco/VU623KC4DHCAUZQox2UzzPTm9N8TtAUyzgjF3hZaiPUIx/KPKEwTJMsJl7meGONN7M/iYfAoLVMFPczv0wC1whpQpDPwxpwwyMPPo27ZUZrS5/0JMswz1Dphmv5JJ3RNAFuJleIEOMCN9lXrKo/OUcTQHv+gZzaRDY7wKpvNMHu7RU4ApwwyKuVGvNsIl5iqTMDdlDnM2CrxKTJnea+b5QCX693wzMQmqmFvsrdtT+G+t0QP5IHNZM1EWmbnEyJdhBTOp6NuLqEwPNIBLSF+SuR1GPUBmqEx/997N/J85pYQTetDm6A16pzrlLK3V2yYS5Jrx1IOMXuot0tsc0zQKQz2Yv6/5sn20yai0V46Xlc30yvFXBv338l7gBRVbz6BAr1bsOem99PK0pwV0ogf3zHnvVXTYXIbijKEedjOHuUzPXcw//mILDvN/87iZoYPM1f9e+JWMHjLnv0ov8/959NQxt2wmhglMWVoRsKAnJkL+H7+nVnM8EE7iAAAAAElFTkSuQmCC;rotation=45;fillColor=#F45B69;strokeColor=#028090;fontColor=#E4FDE1;" vertex="1" parent="WIyWlLk6GJQsqaUBKTNV-1">
          <mxGeometry x="640" y="150" width="179" height="46" as="geometry" />
        </mxCell>
      </root>
    </mxGraphModel>
  </diagram>
</mxfile>
